<svg width="510" height="441" viewBox="0 0 510 441" fill="none" xmlns="http://www.w3.org/2000/svg">
<path d="M451.71 136.275C454.304 109.467 460.509 84.0876 449.539 58.3082C429.404 11.0004 368.67 -14.1162 321.476 8.29216C297.342 19.7192 276.705 36.4369 250.126 42.5732C178.387 59.131 67.6589 -29.0856 28.6128 73.6204C15.2089 108.861 20.6138 155.301 44.8506 184.76C52.6324 194.21 62.1396 202.437 67.8989 213.247C83.6567 242.832 61.3512 275.342 51.2954 302.938C27.4129 368.152 117.458 404.238 166.331 410.889C247.12 421.95 313.763 329.391 394.106 367.101C450.098 393.383 499.235 329.391 488.95 265.4C482.22 223.509 448.144 183.411 451.333 140.72C451.447 139.246 451.573 137.772 451.71 136.275Z" fill="#F5F5F5"/>
<path opacity="0.7" d="M451.71 136.275C454.304 109.467 460.509 84.0876 449.539 58.3082C429.404 11.0004 368.67 -14.1162 321.476 8.29216C297.342 19.7192 276.705 36.4369 250.126 42.5732C178.387 59.131 67.6589 -29.0856 28.6128 73.6204C15.2089 108.861 20.6138 155.301 44.8506 184.76C52.6324 194.21 62.1396 202.437 67.8989 213.247C83.6567 242.832 61.3512 275.342 51.2954 302.938C27.4129 368.152 117.458 404.238 166.331 410.889C247.12 421.95 313.763 329.391 394.106 367.101C450.098 393.383 499.235 329.391 488.95 265.4C482.22 223.509 448.144 183.411 451.333 140.72C451.447 139.246 451.573 137.772 451.71 136.275Z" fill="white"/>
<path d="M67.03 153.712C88.8218 153.712 106.488 136.047 106.488 114.255C106.488 92.4632 88.8218 74.7974 67.03 74.7974C45.2382 74.7974 27.5725 92.4632 27.5725 114.255C27.5725 136.047 45.2382 153.712 67.03 153.712Z" fill="white" stroke="#2E353A" stroke-linecap="round" stroke-linejoin="round"/>
<path d="M64.0935 149.793C85.8853 149.793 103.551 132.127 103.551 110.336C103.551 88.5437 85.8853 70.878 64.0935 70.878C42.3017 70.878 24.636 88.5437 24.636 110.336C24.636 132.127 42.3017 149.793 64.0935 149.793Z" fill="white" stroke="#2E353A" stroke-linecap="round" stroke-linejoin="round"/>
<path d="M64.0931 145.873C83.7202 145.873 99.6311 129.963 99.6311 110.335C99.6311 90.7084 83.7202 74.7974 64.0931 74.7974C44.466 74.7974 28.5551 90.7084 28.5551 110.335C28.5551 129.963 44.466 145.873 64.0931 145.873Z" fill="#2E353A" stroke="#2E353A" stroke-linecap="round" stroke-linejoin="round"/>
<path d="M59.9224 83.619C59.9224 83.619 56.003 73.8146 49.1467 66.9584C42.2905 60.1022 14.34 55.68 14.34 55.68C18.8534 60.0332 22.9577 64.7916 26.6012 69.8952C32.9661 78.7168 54.0261 98.817 54.0261 98.817C54.0261 98.817 43.7418 89.9953 34.4173 89.0126C25.0929 88.0299 1.57605 92.9321 0.136242 92.9321C-1.30356 92.9321 8.9579 96.8515 16.3169 100.28C23.6759 103.708 52.0949 106.656 52.0949 106.656C52.0949 106.656 39.8451 110.084 31.5263 113.032C23.2074 115.98 15.3228 137.532 15.3228 137.532C15.3228 137.532 26.1099 127.727 35.4229 125.282C44.7359 122.837 57.9684 118.426 57.9684 118.426C57.9684 118.426 49.6381 127.739 47.6841 134.115C45.7301 140.491 47.1927 155.186 47.1927 155.186C47.1927 155.186 51.6035 141.474 56.9971 136.069C62.3907 130.664 68.2527 121.42 68.2527 121.42C70.9677 125.845 73.4248 130.423 75.6117 135.132C79.5312 143.462 81.9766 155.701 81.9766 155.701C81.9766 155.701 88.3529 141.988 87.8615 135.132C87.3701 128.276 80.0226 116.015 80.0226 116.015C80.0226 116.015 84.9248 112.587 92.2723 115.523C99.6199 118.46 112.372 130.721 112.372 130.721C112.372 130.721 109.424 114.541 104.522 108.176C99.6199 101.811 78.5485 99.834 78.5485 99.834C78.5485 99.834 90.3183 92.9778 97.6659 91.5037C105.013 90.0296 114.806 93.4691 114.806 93.4691C114.806 93.4691 103.539 77.7798 94.7177 76.7971C85.896 75.8144 72.6636 89.5039 72.6636 89.5039L76.5944 69.8952C77.5657 64.993 75.6117 52.7546 75.6117 52.7546C75.6117 52.7546 70.2182 55.6914 63.8419 65.0044C61.9758 67.6868 60.6674 70.7166 59.9941 73.9142C59.3208 77.1117 59.2965 80.4119 59.9224 83.619Z" fill="#F5F5F5"/>
<path opacity="0.5" d="M59.9224 83.619C59.9224 83.619 56.003 73.8146 49.1467 66.9584C42.2905 60.1022 14.34 55.68 14.34 55.68C18.8534 60.0332 22.9577 64.7916 26.6012 69.8952C32.9661 78.7168 54.0261 98.817 54.0261 98.817C54.0261 98.817 43.7418 89.9953 34.4173 89.0126C25.0929 88.0299 1.57605 92.9321 0.136242 92.9321C-1.30356 92.9321 8.9579 96.8515 16.3169 100.28C23.6759 103.708 52.0949 106.656 52.0949 106.656C52.0949 106.656 39.8451 110.084 31.5263 113.032C23.2074 115.98 15.3228 137.532 15.3228 137.532C15.3228 137.532 26.1099 127.727 35.4229 125.282C44.7359 122.837 57.9684 118.426 57.9684 118.426C57.9684 118.426 49.6381 127.739 47.6841 134.115C45.7301 140.491 47.1927 155.186 47.1927 155.186C47.1927 155.186 51.6035 141.474 56.9971 136.069C62.3907 130.664 68.2527 121.42 68.2527 121.42C70.9677 125.845 73.4248 130.423 75.6117 135.132C79.5312 143.462 81.9766 155.701 81.9766 155.701C81.9766 155.701 88.3529 141.988 87.8615 135.132C87.3701 128.276 80.0226 116.015 80.0226 116.015C80.0226 116.015 84.9248 112.587 92.2723 115.523C99.6199 118.46 112.372 130.721 112.372 130.721C112.372 130.721 109.424 114.541 104.522 108.176C99.6199 101.811 78.5485 99.834 78.5485 99.834C78.5485 99.834 90.3183 92.9778 97.6659 91.5037C105.013 90.0296 114.806 93.4691 114.806 93.4691C114.806 93.4691 103.539 77.7798 94.7177 76.7971C85.896 75.8144 72.6636 89.5039 72.6636 89.5039L76.5944 69.8952C77.5657 64.993 75.6117 52.7546 75.6117 52.7546C75.6117 52.7546 70.2182 55.6914 63.8419 65.0044C61.9758 67.6868 60.6674 70.7166 59.9941 73.9142C59.3208 77.1117 59.2965 80.4119 59.9224 83.619Z" fill="black"/>
<path d="M69.5786 68.6954C69.9214 67.2898 70.2985 65.8843 70.7213 64.5016" stroke="#2E353A" stroke-width="0.5" stroke-linecap="round" stroke-linejoin="round"/>
<path d="M36.8397 68.6956C41.4105 72.0437 47.124 76.6945 50.1179 80.6825C55.5115 88.0301 66.2986 103.719 66.2986 103.719C65.9896 93.1815 66.8249 82.6413 68.7897 72.2836" stroke="#2E353A" stroke-width="0.5" stroke-linecap="round" stroke-linejoin="round"/>
<path d="M30.0292 64.0104C30.0292 64.0104 31.4576 64.9245 33.5944 66.3986" stroke="#2E353A" stroke-width="0.5" stroke-linecap="round" stroke-linejoin="round"/>
<path d="M66.2988 103.719C66.2988 103.719 84.9249 85.0933 92.7638 83.6192C100.603 82.1451 107.47 88.03 107.47 88.03" stroke="#2E353A" stroke-width="0.5" stroke-linecap="round" stroke-linejoin="round"/>
<path d="M33.012 119.294C28.4412 122.174 28.0641 123.865 28.0641 123.865" stroke="#2E353A" stroke-width="0.5" stroke-linecap="round" stroke-linejoin="round"/>
<path d="M106.979 120.871C106.979 120.871 104.042 113.512 93.7463 110.084C83.4506 106.656 67.2927 106.165 67.2927 106.165C67.2927 106.165 44.6101 113.592 36.3141 117.466" stroke="#2E353A" stroke-width="0.5" stroke-linecap="round" stroke-linejoin="round"/>
<path d="M57.3743 103.365C62.8592 104.965 67.2815 106.165 67.2815 106.165" stroke="#2E353A" stroke-width="0.5" stroke-linecap="round" stroke-linejoin="round"/>
<path d="M22.8533 94.6577C28.1783 94.9777 35.0345 95.709 38.8511 97.3431C41.9593 98.68 48.0841 100.611 53.8662 102.337" stroke="#2E353A" stroke-width="0.5" stroke-linecap="round" stroke-linejoin="round"/>
<path d="M15.3231 94.4064C15.3231 94.4064 17.1172 94.4064 19.7568 94.5092" stroke="#2E353A" stroke-width="0.5" stroke-linecap="round" stroke-linejoin="round"/>
<path d="M66.2989 109.101C66.2989 109.101 52.5865 129.67 51.5923 134.595C51.0034 137.501 50.6746 140.453 50.6096 143.417" stroke="#2E353A" stroke-width="0.5" stroke-linecap="round" stroke-linejoin="round"/>
<path d="M72.4008 115.581C75.0404 119.009 78.2057 123.579 79.5312 127.236C81.0741 131.697 82.2213 136.286 82.9593 140.948" stroke="#2E353A" stroke-width="0.5" stroke-linecap="round" stroke-linejoin="round"/>
<path d="M68.2528 110.575C68.2528 110.575 69.3955 111.787 70.8696 113.649" stroke="#2E353A" stroke-width="0.5" stroke-linecap="round" stroke-linejoin="round"/>
<path d="M53.6945 87.8471C53.6945 87.8471 51.1691 77.5628 52.7346 68.0212C54.3001 58.4797 74.4459 38.5624 74.4459 38.5624C73.3263 44.7306 72.7716 50.988 72.789 57.257C72.789 68.1355 67.3612 96.7488 67.3612 96.7488C67.3612 96.7488 70.5722 83.5849 77.5655 77.3228C84.5588 71.0608 106.533 61.325 107.721 60.4908C108.91 59.6567 102.842 68.8211 98.8769 75.9059C94.9117 82.9906 73.5089 101.994 73.5089 101.994C73.5089 101.994 85.4616 97.6287 93.9404 95.1376C102.419 92.6465 121.365 105.605 121.365 105.605C121.365 105.605 106.887 103.936 97.8942 107.376C88.9011 110.815 75.5772 114.952 75.5772 114.952C75.5772 114.952 87.7813 117.66 93.0834 121.694C98.3855 125.728 105.79 138.56 105.79 138.56C105.79 138.56 94.2032 129.979 86.6728 128.744C79.1424 127.51 68.9381 123.385 68.9381 123.385C69.3251 128.562 70.0042 133.712 70.9721 138.812C72.6519 147.873 77.8283 159.255 77.8283 159.255C77.8283 159.255 64.653 151.827 61.042 145.965C57.4311 140.103 56.2655 125.865 56.2655 125.865C56.2655 125.865 50.2778 125.933 45.9812 132.607C41.6847 139.28 38.5194 156.672 38.5194 156.672C38.5194 156.672 31.4803 141.817 31.7431 133.818C32.006 125.819 47.9809 111.901 47.9809 111.901C47.9809 111.901 34.4285 113.192 27.5951 116.278C20.7618 119.363 14.7969 127.876 14.7969 127.876C14.7969 127.876 14.7969 108.564 21.4017 102.622C28.0065 96.6802 46.7583 100.108 46.7583 100.108L32.1317 86.4759C28.475 83.0478 22.9215 71.9636 22.9215 71.9636C22.9215 71.9636 29.0235 71.2094 39.6278 75.0603C42.7101 76.1395 45.5439 77.8276 47.9604 80.0243C50.377 82.2211 52.327 84.8814 53.6945 87.8471Z" fill="#F5F5F5"/>
<path d="M37.1484 81.3566C36.0057 80.4081 34.9315 79.494 33.7888 78.6027" stroke="#2E353A" stroke-width="0.5" stroke-linecap="round" stroke-linejoin="round"/>
<path d="M63.7393 62.262C61.9681 67.6555 59.9913 74.7517 59.9456 79.7339C59.8541 88.8755 60.2427 107.879 60.2427 107.879C54.3446 99.1413 47.5129 91.072 39.8683 83.8133" stroke="#2E353A" stroke-width="0.5" stroke-linecap="round" stroke-linejoin="round"/>
<path d="M66.5501 54.4801C66.5501 54.4801 65.9102 56.057 65.0417 58.491" stroke="#2E353A" stroke-width="0.5" stroke-linecap="round" stroke-linejoin="round"/>
<path d="M60.2422 107.879C60.2422 107.879 34.2457 103.616 27.0238 106.999C19.802 110.381 17.6537 119.134 17.6537 119.134" stroke="#2E353A" stroke-width="0.5" stroke-linecap="round" stroke-linejoin="round"/>
<path d="M96.3746 101.114C101.734 100.817 103.014 101.902 103.014 101.902" stroke="#2E353A" stroke-width="0.5" stroke-linecap="round" stroke-linejoin="round"/>
<path d="M37.2058 145.542C37.2058 145.542 35.3089 137.852 41.6624 129.064C48.0158 120.277 60.8826 110.45 60.8826 110.45C60.8826 110.45 83.6338 103.239 92.6269 101.56" stroke="#2E353A" stroke-width="0.5" stroke-linecap="round" stroke-linejoin="round"/>
<path d="M67.2931 102.394C63.7735 106.884 60.8939 110.45 60.8939 110.45" stroke="#2E353A" stroke-width="0.5" stroke-linecap="round" stroke-linejoin="round"/>
<path d="M90.25 75.186C86.1134 78.6141 80.9713 83.185 78.823 86.693C77.0747 89.5955 73.2238 94.692 69.5328 99.5027" stroke="#2E353A" stroke-width="0.5" stroke-linecap="round" stroke-linejoin="round"/>
<path d="M96.2146 70.5809C96.2146 70.5809 94.7634 71.6322 92.6722 73.2548" stroke="#2E353A" stroke-width="0.5" stroke-linecap="round" stroke-linejoin="round"/>
<path d="M63.3846 112.278C63.3846 112.278 86.5472 120.985 90.1924 124.402C92.3661 126.418 94.3548 128.625 96.1345 130.996" stroke="#2E353A" stroke-width="0.5" stroke-linecap="round" stroke-linejoin="round"/>
<path d="M62.208 121.077C62.0481 125.396 62.128 130.938 63.2136 134.709C64.5607 139.24 66.3083 143.641 68.4358 147.862" stroke="#2E353A" stroke-width="0.5" stroke-linecap="round" stroke-linejoin="round"/>
<path d="M62.6535 114.563C62.6535 114.563 62.4706 116.186 62.3335 118.586" stroke="#2E353A" stroke-width="0.5" stroke-linecap="round" stroke-linejoin="round"/>
<path d="M129.948 140.194H388.964C392.198 140.194 395.299 141.479 397.585 143.765C399.872 146.052 401.157 149.153 401.157 152.387V320.364C401.157 322.115 400.812 323.849 400.141 325.467C399.471 327.085 398.489 328.555 397.251 329.793C396.012 331.032 394.542 332.014 392.924 332.684C391.307 333.354 389.572 333.699 387.821 333.699H131.09C129.339 333.699 127.605 333.354 125.987 332.684C124.369 332.014 122.899 331.032 121.661 329.793C120.423 328.555 119.44 327.085 118.77 325.467C118.1 323.849 117.755 322.115 117.755 320.364V152.387C117.755 149.153 119.04 146.052 121.326 143.765C123.613 141.479 126.714 140.194 129.948 140.194Z" fill="white" stroke="#2E353A" stroke-linecap="round" stroke-linejoin="round"/>
<path d="M224.746 159.243H208.794V169.721H224.746V159.243Z" fill="#2E353A"/>
<path d="M173.062 223.886H158.252V238.581H173.062V223.886Z" fill="#2E353A"/>
<path d="M238.493 172.235H223.569V186.931H238.493V172.235Z" fill="#2E353A"/>
<path d="M206.269 159.243H190.317V169.721H206.269V159.243Z" fill="#2E353A"/>
<path d="M255.931 172.235H241.007V186.931H255.931V172.235Z" fill="#2E353A"/>
<path d="M243.212 159.243H227.26V169.721H243.212V159.243Z" fill="#2E353A"/>
<path d="M164.114 206.665H136.05V221.36H164.114V206.665Z" fill="#2E353A"/>
<path d="M203.606 172.235H188.683V186.931H203.606V172.235Z" fill="#2E353A"/>
<path d="M155.738 223.886H136.05V238.581H155.738V223.886Z" fill="#2E353A"/>
<path d="M261.69 159.243H245.738V169.721H261.69V159.243Z" fill="#2E353A"/>
<path d="M168.72 172.235H153.796V186.931H168.72V172.235Z" fill="#2E353A"/>
<path d="M169.325 159.243H153.373V169.721H169.325V159.243Z" fill="#2E353A"/>
<path d="M187.803 159.243H171.851V169.721H187.803V159.243Z" fill="#2E353A"/>
<path d="M186.157 172.235H171.234V186.931H186.157V172.235Z" fill="#2E353A"/>
<path d="M221.044 172.235H206.12V186.931H221.044V172.235Z" fill="#2E353A"/>
<path d="M335.588 159.243H319.636V169.721H335.588V159.243Z" fill="#2E353A"/>
<path d="M354.055 159.243H338.102V169.721H354.055V159.243Z" fill="#2E353A"/>
<path d="M343.153 172.235H328.229V186.931H343.153V172.235Z" fill="#2E353A"/>
<path d="M360.602 172.235H345.678V186.931H360.602V172.235Z" fill="#2E353A"/>
<path d="M388.198 223.886H366.224V238.581H388.198V223.886Z" fill="#2E353A"/>
<path d="M372.532 159.243H356.58V169.721H372.532V159.243Z" fill="#2E353A"/>
<path d="M151.282 172.235H136.05V186.931H151.282V172.235Z" fill="#2E353A"/>
<path d="M280.167 159.243H264.215V169.721H280.167V159.243Z" fill="#2E353A"/>
<path d="M298.633 159.243H282.681V169.721H298.633V159.243Z" fill="#2E353A"/>
<path d="M290.829 172.235H275.905V186.931H290.829V172.235Z" fill="#2E353A"/>
<path d="M325.715 172.235H310.792V186.931H325.715V172.235Z" fill="#2E353A"/>
<path d="M273.38 172.235H258.456V186.931H273.38V172.235Z" fill="#2E353A"/>
<path d="M308.266 172.235H293.343V186.931H308.266V172.235Z" fill="#2E353A"/>
<path d="M317.111 159.243H301.159V169.721H317.111V159.243Z" fill="#2E353A"/>
<path d="M294.383 223.886H279.573V238.581H294.383V223.886Z" fill="#2E353A"/>
<path d="M372.086 206.665H357.277V221.36H372.086V206.665Z" fill="#2E353A"/>
<path d="M354.751 206.665H339.942V221.36H354.751V206.665Z" fill="#2E353A"/>
<path d="M363.699 223.886H348.889V238.581H363.699V223.886Z" fill="#2E353A"/>
<path d="M346.376 223.886H331.566V238.581H346.376V223.886Z" fill="#2E353A"/>
<path d="M311.706 223.886H296.896V238.581H311.706V223.886Z" fill="#2E353A"/>
<path d="M329.041 223.886H314.231V238.581H329.041V223.886Z" fill="#2E353A"/>
<path d="M337.417 206.665H322.607V221.36H337.417V206.665Z" fill="#2E353A"/>
<path d="M320.094 206.665H305.284V221.36H320.094V206.665Z" fill="#2E353A"/>
<path d="M388.21 159.243H375.057V169.721H388.21V159.243Z" fill="#2E353A"/>
<path d="M150.859 159.243H136.05V169.721H150.859V159.243Z" fill="#2E353A"/>
<path d="M388.21 241.095H136.05V256.373H388.21V241.095Z" fill="#2E353A"/>
<path d="M388.198 172.235H363.116V186.931H388.198V172.235Z" fill="#2E353A"/>
<path d="M388.198 206.665H374.6V221.36H388.198V206.665Z" fill="#2E353A"/>
<path d="M370.418 204.037H367.893V189.456H353.083V204.037H350.569V189.456H335.76V204.037H333.234V189.456H318.425V204.037H315.9V189.456H301.09V204.037H298.576V189.456H283.767V204.037H281.241V189.456H266.432V204.037H263.907V189.456H249.097V204.037H246.583V189.456H231.774V204.037H229.248V189.456H214.439V204.037H211.914V189.456H197.104V204.037H194.59V189.456H179.781V204.037H177.256V189.456H162.446V204.037H159.921V189.456H136.05V204.151H388.198V189.456H370.418V204.037Z" fill="#2E353A"/>
<path d="M250.765 206.665H235.956V221.36H250.765V206.665Z" fill="#2E353A"/>
<path d="M302.758 206.665H287.949V221.36H302.758V206.665Z" fill="#2E353A"/>
<path d="M216.108 206.665H201.298V221.36H216.108V206.665Z" fill="#2E353A"/>
<path d="M225.055 223.886H210.245V238.581H225.055V223.886Z" fill="#2E353A"/>
<path d="M233.431 206.665H218.621V221.36H233.431V206.665Z" fill="#2E353A"/>
<path d="M198.773 206.665H183.963V221.36H198.773V206.665Z" fill="#2E353A"/>
<path d="M190.397 223.886H175.587V238.581H190.397V223.886Z" fill="#2E353A"/>
<path d="M207.72 223.886H192.911V238.581H207.72V223.886Z" fill="#2E353A"/>
<path d="M268.1 206.665H253.291V221.36H268.1V206.665Z" fill="#2E353A"/>
<path d="M277.048 223.886H262.238V238.581H277.048V223.886Z" fill="#2E353A"/>
<path d="M285.424 206.665H270.614V221.36H285.424V206.665Z" fill="#2E353A"/>
<path d="M242.39 223.886H227.58V238.581H242.39V223.886Z" fill="#2E353A"/>
<path d="M259.713 223.886H244.904V238.581H259.713V223.886Z" fill="#2E353A"/>
<path d="M181.438 206.665H166.628V221.36H181.438V206.665Z" fill="#2E353A"/>
<path d="M417.337 35.0656H100.055C98.4986 35.0668 96.9637 35.4258 95.5687 36.1149C94.1736 36.8039 92.9557 37.8046 92.0091 39.0395C91.0625 40.2744 90.4126 41.7104 90.1096 43.2365C89.8066 44.7627 89.8585 46.3381 90.2616 47.841L113.458 134.206C114.037 136.362 115.309 138.267 117.08 139.627C118.85 140.986 121.019 141.724 123.251 141.725H155.636V147.702H363.253V141.76H394.106C396.338 141.758 398.507 141.02 400.278 139.661C402.048 138.302 403.321 136.397 403.899 134.241L427.096 47.8752C427.504 46.373 427.562 44.7968 427.264 43.2688C426.965 41.7408 426.319 40.3019 425.376 39.0635C424.433 37.8251 423.217 36.8204 421.823 36.1271C420.429 35.4338 418.894 35.0706 417.337 35.0656Z" fill="#2E353A" stroke="#2E353A" stroke-linecap="round" stroke-linejoin="round"/>
<path d="M381.456 134.104H135.935L111.379 45.7384H406.002L381.456 134.104Z" fill="#F5F5F5" stroke="#2E353A" stroke-linecap="round" stroke-linejoin="round"/>
<path d="M152.23 95.3201V96.4628H147.899V95.3201H152.23Z" fill="#2E353A"/>
<path d="M157.624 95.3201V96.4628H153.282V95.3201H157.624Z" fill="#2E353A"/>
<path d="M163.018 95.3201V96.4628H158.71V95.3201H163.018Z" fill="#2E353A"/>
<path d="M168.4 95.3201V96.4628H164.069V95.3201H168.4Z" fill="#2E353A"/>
<path d="M173.793 95.3201V96.4628H169.451V95.3201H173.793Z" fill="#2E353A"/>
<path d="M179.187 95.3201V96.4628H174.844V95.3201H179.187Z" fill="#2E353A"/>
<path d="M184.569 95.3201V96.4628H180.238V95.3201H184.569Z" fill="#2E353A"/>
<path d="M189.905 101.342L185.129 88.6126H186.271L191.048 101.342H189.905Z" fill="#2E353A"/>
<path d="M147.865 76.7855V77.9282H143.534V76.7855H147.865Z" fill="#2E353A"/>
<path d="M153.259 76.7855V77.9282H148.928V76.7855H153.259Z" fill="#2E353A"/>
<path d="M158.709 76.7855V77.9282H154.367V76.7855H158.709Z" fill="#2E353A"/>
<path d="M164.046 76.7855V77.9282H159.704V76.7855H164.046Z" fill="#2E353A"/>
<path d="M169.428 76.7855V77.9282H165.097V76.7855H169.428Z" fill="#2E353A"/>
<path d="M178.547 76.7855V77.9282H174.204V76.7855H178.547Z" fill="#2E353A"/>
<path d="M183.929 76.7855V77.9282H179.598V76.7855H183.929Z" fill="#2E353A"/>
<path d="M189.323 76.7855V77.9282H184.992V76.7855H189.323Z" fill="#2E353A"/>
<path d="M194.716 76.7855V77.9282H190.374V76.7855H194.716Z" fill="#2E353A"/>
<path d="M200.098 76.7855V77.9282H195.767V76.7855H200.098Z" fill="#2E353A"/>
<path d="M205.492 76.7855V77.9282H201.161V76.7855H205.492Z" fill="#2E353A"/>
<path d="M210.885 76.7855V77.9282H206.543V76.7855H210.885Z" fill="#2E353A"/>
<path d="M219.992 76.7855V77.9282H215.662V76.7855H219.992Z" fill="#2E353A"/>
<path d="M225.386 76.7855V77.9282H221.044V76.7855H225.386Z" fill="#2E353A"/>
<path d="M230.78 76.7855V77.9282H226.438V76.7855H230.78Z" fill="#2E353A"/>
<path d="M239.841 76.7855V77.9282H235.51V76.7855H239.841Z" fill="#2E353A"/>
<path d="M245.281 76.7855V77.9282H240.984V76.7855H245.281Z" fill="#2E353A"/>
<path d="M250.674 76.7855V77.9282H246.332V76.7855H250.674Z" fill="#2E353A"/>
<path d="M270.946 76.7855V77.9282H266.615V76.7855H270.946Z" fill="#2E353A"/>
<path d="M276.339 76.7855V77.9282H271.997V76.7855H276.339Z" fill="#2E353A"/>
<path d="M281.733 76.7855V77.9282H277.391V76.7855H281.733Z" fill="#2E353A"/>
<path d="M287.115 76.7855V77.9282H282.784V76.7855H287.115Z" fill="#2E353A"/>
<path d="M292.509 76.7855V77.9282H288.166V76.7855H292.509Z" fill="#2E353A"/>
<path d="M301.616 76.7855V77.9282H297.285V76.7855H301.616Z" fill="#2E353A"/>
<path d="M307.009 76.7855V77.9282H302.69V76.7855H307.009Z" fill="#2E353A"/>
<path d="M312.403 76.7855V77.9282H308.061V76.7855H312.403Z" fill="#2E353A"/>
<path d="M321.51 76.7855V77.9282H317.179V76.7855H321.51Z" fill="#2E353A"/>
<path d="M330.629 76.7855V77.9282H326.287V76.7855H330.629Z" fill="#2E353A"/>
<path d="M402.894 264.589L390.667 311.759L402.231 315.153L402.894 264.589Z" fill="white" stroke="#2E353A" stroke-linecap="round" stroke-linejoin="round"/>
<path d="M408.379 214.733C406.999 212.613 406.495 210.04 406.973 207.556C407.602 202.906 413.213 201.843 413.213 201.843C413.213 201.843 414.435 200.917 418.926 202.62C423.417 204.323 458.144 209.031 480.335 212.036C502.526 215.041 509.714 213.099 509.405 220.72C509.097 228.342 489.625 296.744 489.328 298.893C489.031 301.041 408.379 214.733 408.379 214.733Z" fill="white" stroke="#2E353A" stroke-miterlimit="10"/>
<path d="M501.72 227.389L408.369 214.735L393.285 326.01L486.635 338.665L501.72 227.389Z" fill="white" stroke="#2E353A" stroke-linecap="round" stroke-linejoin="round"/>
<path d="M484.368 249.585L489.796 250.328" stroke="#2E353A" stroke-width="0.5" stroke-linecap="round" stroke-linejoin="round"/>
<path d="M450.373 244.98L480.072 249.014" stroke="#2E353A" stroke-width="0.5" stroke-linecap="round" stroke-linejoin="round"/>
<path d="M414.378 240.101L446.077 244.397" stroke="#2E353A" stroke-width="0.5" stroke-linecap="round" stroke-linejoin="round"/>
<path d="M475.867 258.51L488.459 260.224" stroke="#2E353A" stroke-width="0.5" stroke-linecap="round" stroke-linejoin="round"/>
<path d="M413.041 249.996L462.989 256.761" stroke="#2E353A" stroke-width="0.5" stroke-linecap="round" stroke-linejoin="round"/>
<path d="M438.386 263.503L487.122 270.108" stroke="#2E353A" stroke-width="0.5" stroke-linecap="round" stroke-linejoin="round"/>
<path d="M411.693 259.881L433.37 262.829" stroke="#2E353A" stroke-width="0.5" stroke-linecap="round" stroke-linejoin="round"/>
<path d="M454.578 275.776L485.774 280.004" stroke="#2E353A" stroke-width="0.5" stroke-linecap="round" stroke-linejoin="round"/>
<path d="M428.102 272.176L451.002 275.284" stroke="#2E353A" stroke-width="0.5" stroke-linecap="round" stroke-linejoin="round"/>
<path d="M410.356 269.777L424.159 271.651" stroke="#2E353A" stroke-width="0.5" stroke-linecap="round" stroke-linejoin="round"/>
<path d="M473.273 288.38L484.437 289.888" stroke="#2E353A" stroke-width="0.5" stroke-linecap="round" stroke-linejoin="round"/>
<path d="M409.019 279.672L465.765 287.363" stroke="#2E353A" stroke-width="0.5" stroke-linecap="round" stroke-linejoin="round"/>
<path d="M451.539 295.499L483.1 299.784" stroke="#2E353A" stroke-width="0.5" stroke-linecap="round" stroke-linejoin="round"/>
<path d="M407.67 289.557L446.168 294.779" stroke="#2E353A" stroke-width="0.5" stroke-linecap="round" stroke-linejoin="round"/>
<path d="M461.286 306.903L481.752 309.668" stroke="#2E353A" stroke-width="0.5" stroke-linecap="round" stroke-linejoin="round"/>
<path d="M419.783 301.269L456.281 306.217" stroke="#2E353A" stroke-width="0.5" stroke-linecap="round" stroke-linejoin="round"/>
<path d="M406.333 299.453L415.486 300.687" stroke="#2E353A" stroke-width="0.5" stroke-linecap="round" stroke-linejoin="round"/>
<path d="M501.726 227.394C501.726 227.394 503.326 211.876 509.039 218.115" stroke="#2E353A" stroke-linecap="round" stroke-linejoin="round"/>
<path d="M470.073 346.932L469.97 356.793L464.222 348.68L441.151 271.079L447.002 269.331L470.073 346.932Z" fill="white" stroke="#2E353A" stroke-linecap="round" stroke-linejoin="round"/>
<path d="M444.712 272.647L441.52 273.578L464.189 351.3L467.381 350.369L444.712 272.647Z" fill="#F5F5F5" stroke="#2E353A" stroke-width="0.5" stroke-linecap="round" stroke-linejoin="round"/>
<path d="M470.073 346.955L464.234 348.692L469.97 356.793L470.073 346.955Z" stroke="#2E353A" stroke-linecap="round" stroke-linejoin="round"/>
<path d="M467.102 352.737L469.97 356.793L470.028 351.868L467.102 352.737Z" fill="#2E353A" stroke="#2E353A" stroke-linecap="round" stroke-linejoin="round"/>
<path d="M441.494 261.515C440.72 261.748 440.069 262.277 439.684 262.988C439.299 263.699 439.21 264.533 439.437 265.309L441.151 271.079L447.002 269.342L445.288 263.572C445.055 262.798 444.526 262.147 443.815 261.762C443.104 261.376 442.27 261.288 441.494 261.515Z" fill="white" stroke="#2E353A" stroke-linecap="round" stroke-linejoin="round"/>
<path d="M441.494 261.515C440.72 261.748 440.069 262.277 439.684 262.988C439.299 263.699 439.21 264.533 439.437 265.309L440.26 268.063L446.099 266.326L445.288 263.572C445.055 262.798 444.526 262.147 443.815 261.762C443.104 261.376 442.27 261.288 441.494 261.515Z" fill="#2E353A" stroke="#2E353A" stroke-linecap="round" stroke-linejoin="round"/>
<path d="M153.738 215.681C153.007 216.71 152.287 217.784 151.567 218.915" stroke="white" stroke-linecap="round" stroke-linejoin="round"/>
<path d="M165.691 201.923C162.507 204.874 159.561 208.072 156.881 211.487" stroke="white" stroke-linecap="round" stroke-linejoin="round"/>
<path d="M152.721 207.991C149.599 212.37 146.771 216.951 144.254 221.703" stroke="white" stroke-linecap="round" stroke-linejoin="round"/>
<path d="M233.316 233.119C232.596 234.147 231.865 235.221 231.145 236.341" stroke="white" stroke-linecap="round" stroke-linejoin="round"/>
<path d="M245.269 219.361C242.091 222.314 239.149 225.512 236.47 228.925" stroke="white" stroke-linecap="round" stroke-linejoin="round"/>
<path d="M232.31 225.406C229.19 229.81 226.362 234.413 223.843 239.187" stroke="white" stroke-linecap="round" stroke-linejoin="round"/>
<path d="M347.381 204.837C346.341 204.128 345.244 203.42 344.113 202.711" stroke="white" stroke-linecap="round" stroke-linejoin="round"/>
<path d="M361.322 216.584C358.316 213.454 355.073 210.562 351.62 207.934" stroke="white" stroke-linecap="round" stroke-linejoin="round"/>
<path d="M355.06 203.694C350.613 200.641 345.971 197.881 341.165 195.432" stroke="white" stroke-linecap="round" stroke-linejoin="round"/>
<path d="M229.842 275.684C229.248 279.981 228.357 285.969 227.466 289.523" stroke="#2E353A" stroke-linecap="round" stroke-linejoin="round"/>
<path d="M230.505 270.462C230.505 270.462 230.414 271.274 230.242 272.588" stroke="#2E353A" stroke-linecap="round" stroke-linejoin="round"/>
<path d="M233.556 282.655C232.308 286.817 230.781 290.891 228.985 294.848" stroke="#2E353A" stroke-linecap="round" stroke-linejoin="round"/>
<path d="M290.691 288.746C290.691 288.746 291.457 298.653 296.782 303.989" stroke="#2E353A" stroke-linecap="round" stroke-linejoin="round"/>
<path d="M289.926 298.653C289.926 298.653 292.211 305.509 296.782 308.56" stroke="#2E353A" stroke-linecap="round" stroke-linejoin="round"/>
<g style="mix-blend-mode:multiply">
<path d="M134.712 351.606C134.712 351.606 139.786 347.526 139.786 312.457C139.786 277.387 145.625 251.768 152.824 240.535C160.023 229.302 166.754 224.8 169.908 224.8C173.061 224.8 170.799 228.845 166.308 234.684C161.817 240.524 157.772 243.677 155.967 250.876C154.161 258.075 154.172 267.057 156.424 266.154C158.675 265.252 162.263 247.277 165.405 240.535C168.548 233.793 176.204 225.246 180.695 221.2C185.185 217.155 195.081 205.02 199.572 208.162C204.063 211.305 201.378 215.807 198.681 217.601C195.984 219.395 185.185 230.171 180.249 236.935C175.312 243.7 172.159 260.761 174.855 261.206C177.552 261.652 185.643 236.49 190.133 231.096C194.624 225.703 212.61 210.859 216.655 210.413C220.701 209.968 221.158 216.253 217.558 219.406C213.959 222.56 201.823 236.033 197.778 244.123C193.733 252.213 191.927 267.057 195.493 263.458C199.058 259.858 204.931 245.026 209.879 240.078C214.827 235.13 229.659 219.406 233.259 221.2C236.858 222.995 235.956 227.497 232.813 230.639C229.671 233.782 217.524 250.876 214.381 259.858C211.239 268.84 207.628 294.025 209.434 290.437C211.239 286.849 217.078 268.406 220.221 260.727C223.363 253.048 229.659 249.494 230.562 253.082C231.465 256.67 229.659 258.475 227.408 266.577C225.157 274.679 225.123 296.287 218.427 308.377C211.73 320.467 184.854 346.338 181.266 355.319C178.667 361.506 175.564 367.468 171.987 373.146" fill="#F5F5F5"/>
</g>
<g style="mix-blend-mode:multiply">
<path d="M384.45 354.645C384.45 354.645 379.251 347.526 379.251 312.457C379.251 277.387 373.4 251.768 366.212 240.535C359.025 229.302 352.271 224.8 349.129 224.8C345.987 224.8 348.226 228.845 352.728 234.684C357.231 240.524 361.264 243.677 363.013 250.876C364.761 258.075 364.818 267.057 362.567 266.154C360.316 265.252 356.728 247.277 353.574 240.535C350.42 233.793 342.787 225.246 338.296 221.2C333.805 217.155 323.91 205.02 319.407 208.162C314.905 211.305 317.613 215.807 320.31 217.601C323.007 219.395 333.794 230.171 338.742 236.935C343.69 243.7 346.832 260.761 344.135 261.206C341.439 261.652 333.383 236.49 328.892 231.119C324.401 225.748 306.403 210.882 302.358 210.436C298.313 209.991 297.867 216.275 301.467 219.429C305.066 222.583 317.202 236.056 321.247 244.146C325.292 252.236 327.086 267.08 323.532 263.48C319.979 259.881 314.094 245.049 309.157 240.101C304.221 235.153 289.377 219.429 285.778 221.223C282.178 223.017 283.081 227.52 286.223 230.662C289.366 233.804 301.513 250.899 304.655 259.881C307.797 268.863 311.397 294.048 309.603 290.46C307.809 286.872 301.958 268.428 298.816 260.749C295.673 253.07 289.377 249.517 288.474 253.105C287.572 256.693 289.377 258.498 291.617 266.6C293.856 274.702 293.902 296.31 300.61 308.4C307.317 320.49 333.428 344.087 337.028 353.08C340.627 362.073 347.141 376.242 347.141 376.242" fill="#F5F5F5"/>
</g>
<path d="M132.998 360.244C132.998 360.244 139.74 338.225 139.74 303.109C139.74 267.994 145.579 242.42 152.778 231.188C159.977 219.955 166.708 215.453 169.862 215.453C173.016 215.453 170.753 219.498 166.262 225.337C161.772 231.176 157.726 234.33 155.921 241.518C154.115 248.705 154.127 257.71 156.378 256.807C158.629 255.904 162.217 237.93 165.36 231.188C168.502 224.446 176.158 215.898 180.649 211.853C185.14 207.808 195.036 195.672 199.526 198.815C204.017 201.957 201.332 206.46 198.635 208.254C195.938 210.048 185.14 220.823 180.203 227.588C175.267 234.353 172.113 251.413 174.81 251.859C177.507 252.305 185.597 227.142 190.088 221.737C194.579 216.332 212.565 201.512 216.61 201.066C220.655 200.62 221.112 206.905 217.513 210.059C213.913 213.213 201.778 226.685 197.732 234.776C193.687 242.866 191.882 257.71 195.447 254.11C199.012 250.511 204.886 235.678 209.834 230.731C214.781 225.783 229.614 210.059 233.213 211.853C236.813 213.647 235.91 218.149 232.768 221.292C229.625 224.434 217.478 241.518 214.336 250.511C211.193 259.504 207.582 284.677 209.388 281.078C211.193 277.478 217.033 259.058 220.175 251.368C223.317 243.677 229.614 240.124 230.516 243.723C231.419 247.323 229.614 249.117 227.363 257.207C225.112 265.297 225.077 286.917 218.381 299.018C211.685 311.12 185.563 343.972 181.963 352.965C178.364 361.958 170.273 381.739 170.273 381.739" fill="white"/>
<path d="M132.998 360.244C132.998 360.244 139.74 338.225 139.74 303.109C139.74 267.994 145.579 242.42 152.778 231.188C159.977 219.955 166.708 215.453 169.862 215.453C173.016 215.453 170.753 219.498 166.262 225.337C161.772 231.176 157.726 234.33 155.921 241.518C154.115 248.705 154.127 257.71 156.378 256.807C158.629 255.904 162.217 237.93 165.36 231.188C168.502 224.446 176.158 215.898 180.649 211.853C185.14 207.808 195.036 195.672 199.526 198.815C204.017 201.957 201.332 206.46 198.635 208.254C195.938 210.048 185.14 220.823 180.203 227.588C175.267 234.353 172.113 251.413 174.81 251.859C177.507 252.305 185.597 227.142 190.088 221.737C194.579 216.332 212.565 201.512 216.61 201.066C220.655 200.62 221.112 206.905 217.513 210.059C213.913 213.213 201.778 226.685 197.732 234.776C193.687 242.866 191.882 257.71 195.447 254.11C199.012 250.511 204.886 235.678 209.834 230.731C214.781 225.783 229.614 210.059 233.213 211.853C236.813 213.647 235.91 218.149 232.768 221.292C229.625 224.434 217.478 241.518 214.336 250.511C211.193 259.504 207.582 284.677 209.388 281.078C211.193 277.478 217.033 259.058 220.175 251.368C223.317 243.677 229.614 240.124 230.516 243.723C231.419 247.323 229.614 249.117 227.363 257.207C225.112 265.297 225.077 286.917 218.381 299.018C211.685 311.12 185.563 343.972 181.963 352.965C178.364 361.958 170.273 381.739 170.273 381.739" stroke="#2E353A" stroke-linecap="round" stroke-linejoin="round"/>
<path d="M385.981 360.244C385.981 360.244 379.239 338.225 379.239 303.109C379.239 267.994 373.388 242.42 366.201 231.188C359.013 219.955 352.26 215.453 349.117 215.453C345.975 215.453 348.215 219.498 352.717 225.337C357.219 231.176 361.253 234.33 363.001 241.518C364.75 248.705 364.807 257.71 362.556 256.807C360.305 255.904 356.716 237.93 353.563 231.188C350.409 224.446 342.775 215.898 338.285 211.853C333.794 207.808 323.898 195.672 319.396 198.815C314.894 201.957 317.602 206.46 320.299 208.254C322.995 210.048 333.782 220.823 338.73 227.588C343.678 234.353 346.821 251.413 344.124 251.859C341.427 252.305 333.337 227.142 328.846 221.737C324.355 216.332 306.358 201.512 302.312 201.066C298.267 200.62 297.822 206.905 301.421 210.059C305.021 213.213 317.156 226.685 321.201 234.776C325.246 242.866 327.04 257.71 323.487 254.11C319.933 250.511 314.048 235.678 309.111 230.731C304.175 225.783 289.331 210.059 285.732 211.853C282.132 213.647 283.035 218.149 286.177 221.292C289.32 224.434 301.467 241.518 304.609 250.511C307.752 259.504 311.351 284.677 309.557 281.078C307.763 277.478 301.912 259.058 298.77 251.368C295.628 243.677 289.331 240.124 288.429 243.723C287.526 247.323 289.331 249.117 291.571 257.207C293.811 265.297 293.856 286.917 300.564 299.018C307.272 311.12 333.382 343.972 336.982 352.965C340.581 361.958 348.672 381.739 348.672 381.739" fill="white"/>
<path d="M385.981 360.244C385.981 360.244 379.239 338.225 379.239 303.109C379.239 267.994 373.388 242.42 366.201 231.188C359.013 219.955 352.26 215.453 349.117 215.453C345.975 215.453 348.215 219.498 352.717 225.337C357.219 231.176 361.253 234.33 363.001 241.518C364.75 248.705 364.807 257.71 362.556 256.807C360.305 255.904 356.716 237.93 353.563 231.188C350.409 224.446 342.775 215.898 338.285 211.853C333.794 207.808 323.898 195.672 319.396 198.815C314.894 201.957 317.602 206.46 320.299 208.254C322.995 210.048 333.782 220.823 338.73 227.588C343.678 234.353 346.821 251.413 344.124 251.859C341.427 252.305 333.337 227.142 328.846 221.737C324.355 216.332 306.358 201.512 302.312 201.066C298.267 200.62 297.822 206.905 301.421 210.059C305.021 213.213 317.156 226.685 321.201 234.776C325.246 242.866 327.04 257.71 323.487 254.11C319.933 250.511 314.048 235.678 309.111 230.731C304.175 225.783 289.331 210.059 285.732 211.853C282.132 213.647 283.035 218.149 286.177 221.292C289.32 224.434 301.467 241.518 304.609 250.511C307.752 259.504 311.351 284.677 309.557 281.078C307.763 277.478 301.912 259.058 298.77 251.368C295.628 243.677 289.331 240.124 288.429 243.723C287.526 247.323 289.331 249.117 291.571 257.207C293.811 265.297 293.856 286.917 300.564 299.018C307.272 311.12 333.382 343.972 336.982 352.965C340.581 361.958 348.672 381.739 348.672 381.739" stroke="#2E353A" stroke-linecap="round" stroke-linejoin="round"/>
<path d="M104.545 428.807H173.107C173.998 425.378 175.118 421.539 176.535 417.38C181.929 401.222 199.389 381.019 199.389 381.019C186.875 369.997 172.17 361.749 156.241 356.816C129.959 348.726 110.716 351.103 110.716 351.103C114.258 365.708 114.648 380.901 111.858 395.668C108.43 412.306 106.145 422.83 104.545 428.807Z" fill="#2E353A" stroke="#2E353A" stroke-linecap="round" stroke-linejoin="round"/>
<path d="M345.427 428.807H416.663C414.377 422.887 409.441 410.032 404.504 397.177C397.763 379.67 400.459 356.108 397.763 356.108C395.066 356.108 364.773 354.085 349.963 358.793C335.154 363.501 318.31 376.974 318.31 376.974C325.935 385.833 332.49 395.56 337.839 405.952C341.278 413.238 343.825 420.911 345.427 428.807Z" fill="#2E353A" stroke="#2E353A" stroke-linecap="round" stroke-linejoin="round"/>
<path d="M147.374 365.044C146.882 363.101 139.569 366.026 139.569 366.026C139.569 366.026 142.014 356.771 138.118 356.771C134.221 356.771 133.73 363.627 133.73 363.627C133.73 363.627 126.416 360.713 126.416 365.089C126.416 369.466 131.284 369.386 131.284 369.386C131.284 369.386 125.434 376.699 129.822 378.151C134.21 379.602 137.123 374.254 137.123 374.254C137.123 374.254 140.049 379.133 143.98 377.179C147.911 375.225 144.951 370.849 144.951 370.849C144.951 370.849 147.853 366.998 147.374 365.044ZM137.626 372.357C137.258 372.275 136.921 372.091 136.653 371.826C136.386 371.561 136.198 371.226 136.113 370.859C136.027 370.492 136.047 370.108 136.17 369.752C136.294 369.396 136.515 369.082 136.809 368.846C137.102 368.61 137.457 368.462 137.831 368.418C138.206 368.375 138.584 368.439 138.924 368.601C139.264 368.764 139.551 369.02 139.752 369.338C139.953 369.657 140.06 370.026 140.06 370.403C139.978 370.977 139.681 371.497 139.229 371.86C138.777 372.223 138.204 372.401 137.626 372.357ZM158.092 419.665C157.601 417.722 150.287 420.648 150.287 420.648C150.287 420.648 152.733 411.392 148.825 411.392C144.917 411.392 144.448 418.248 144.448 418.248C144.448 418.248 137.135 415.323 137.135 419.699C137.135 424.076 142.014 424.087 142.014 424.087C142.014 424.087 136.164 431.4 140.552 432.863C144.94 434.326 147.853 428.955 147.853 428.955C147.853 428.955 150.779 433.834 154.71 431.88C158.641 429.926 155.681 425.55 155.681 425.55C155.681 425.55 158.572 421.562 158.092 419.665ZM148.345 426.978C147.977 426.896 147.64 426.712 147.372 426.447C147.104 426.182 146.917 425.847 146.831 425.48C146.746 425.113 146.766 424.729 146.889 424.373C147.012 424.017 147.233 423.703 147.527 423.467C147.821 423.231 148.175 423.083 148.55 423.04C148.924 422.996 149.303 423.06 149.643 423.223C149.983 423.385 150.27 423.641 150.471 423.96C150.672 424.278 150.778 424.647 150.779 425.024C150.696 425.593 150.397 426.109 149.943 426.462C149.49 426.816 148.917 426.98 148.345 426.921V426.978ZM115.206 426.978C114.715 425.024 107.413 427.95 107.413 427.95C107.413 427.95 109.847 418.694 105.951 418.694C102.054 418.694 101.563 425.55 101.563 425.55C101.563 425.55 94.2493 422.624 94.2493 427.012C94.2493 431.4 99.1286 431.4 99.1286 431.4C99.1286 431.4 93.278 438.702 97.666 440.165C102.054 441.628 104.968 436.268 104.968 436.268C104.968 436.268 107.893 441.136 111.824 439.194C115.755 437.251 112.807 432.863 112.807 432.863C112.807 432.863 115.698 428.864 115.218 426.921L115.206 426.978ZM105.459 434.28C105.091 434.198 104.753 434.014 104.485 433.748C104.217 433.482 104.03 433.146 103.945 432.779C103.86 432.411 103.881 432.027 104.005 431.671C104.129 431.314 104.351 431 104.646 430.765C104.941 430.53 105.296 430.383 105.671 430.341C106.046 430.299 106.425 430.364 106.765 430.528C107.105 430.693 107.391 430.95 107.59 431.27C107.79 431.59 107.895 431.96 107.893 432.337C107.808 432.902 107.509 433.413 107.058 433.764C106.608 434.115 106.039 434.279 105.471 434.223L105.459 434.28ZM168.308 388.972H173.667C177.564 388.972 179.998 393.36 179.998 393.36C171.724 395.737 168.319 388.915 168.319 388.915L168.308 388.972ZM162.949 426.978H168.308C172.204 426.978 174.638 431.366 174.638 431.366C166.365 433.743 162.96 426.921 162.96 426.921L162.949 426.978ZM116.189 419.665H121.548C125.445 419.665 127.879 424.053 127.879 424.053C119.594 426.43 116.189 419.665 116.189 419.665ZM142.094 385.281L145.225 389.635C147.511 392.811 145.351 397.336 145.351 397.336C138.54 391.977 142.094 385.224 142.094 385.224V385.281ZM115.286 399.839L117.732 395.074C119.526 391.646 124.531 391.44 124.531 391.44C122.851 399.919 115.286 399.839 115.286 399.839Z" fill="white"/>
<path d="M376.84 374.3C376.348 372.357 369.035 375.282 369.035 375.282C369.035 375.282 371.48 366.027 367.584 366.027C363.687 366.027 363.196 372.883 363.196 372.883C363.196 372.883 355.882 369.969 355.882 374.345C355.882 378.722 360.762 378.733 360.762 378.733C360.762 378.733 354.911 386.047 359.299 387.509C363.687 388.972 366.601 383.601 366.601 383.601C366.601 383.601 369.526 388.481 373.457 386.527C377.388 384.573 374.429 380.196 374.429 380.196C374.429 380.196 377.32 376.242 376.84 374.3ZM367.092 381.613C366.725 381.531 366.387 381.347 366.12 381.082C365.852 380.817 365.664 380.482 365.579 380.115C365.494 379.748 365.513 379.364 365.637 379.008C365.76 378.652 365.981 378.338 366.275 378.102C366.569 377.866 366.923 377.718 367.297 377.674C367.672 377.631 368.051 377.695 368.39 377.857C368.73 378.02 369.017 378.276 369.218 378.594C369.419 378.913 369.526 379.282 369.526 379.659C369.457 380.239 369.164 380.768 368.709 381.133C368.253 381.499 367.673 381.671 367.092 381.613ZM399.728 412.306C399.248 410.352 391.935 413.277 391.935 413.277C391.935 413.277 394.369 404.021 390.472 404.021C386.575 404.021 386.096 410.878 386.096 410.878C386.096 410.878 378.782 407.952 378.782 412.34C378.782 416.728 383.65 416.728 383.65 416.728C383.65 416.728 377.811 424.03 382.199 425.493C386.587 426.955 389.501 421.596 389.501 421.596C389.501 421.596 392.426 426.464 396.357 424.521C400.288 422.579 397.328 418.191 397.328 418.191C397.328 418.191 400.219 414.249 399.728 412.306ZM389.992 419.665C389.624 419.583 389.286 419.399 389.018 419.133C388.75 418.867 388.563 418.531 388.478 418.164C388.393 417.796 388.414 417.412 388.538 417.056C388.662 416.699 388.884 416.385 389.179 416.15C389.474 415.915 389.829 415.768 390.204 415.726C390.579 415.684 390.958 415.749 391.298 415.913C391.638 416.078 391.924 416.335 392.123 416.655C392.323 416.975 392.428 417.345 392.426 417.722C392.354 418.3 392.06 418.826 391.605 419.189C391.15 419.552 390.571 419.723 389.992 419.665ZM375.377 426.978C374.886 425.024 367.584 427.95 367.584 427.95C367.584 427.95 370.018 418.694 366.121 418.694C362.224 418.694 361.733 425.55 361.733 425.55C361.733 425.55 354.42 422.625 354.42 427.013C354.42 431.401 359.299 431.401 359.299 431.401C359.299 431.401 353.449 438.702 357.837 440.165C362.224 441.628 365.138 436.268 365.138 436.268C365.138 436.268 368.064 441.136 371.995 439.194C375.925 437.251 372.977 432.863 372.977 432.863C372.977 432.863 375.823 428.864 375.377 426.921V426.978ZM365.63 434.28C365.261 434.198 364.924 434.014 364.656 433.748C364.388 433.482 364.201 433.146 364.116 432.779C364.031 432.411 364.051 432.027 364.175 431.671C364.299 431.315 364.522 431.001 364.817 430.765C365.111 430.53 365.467 430.383 365.842 430.341C366.217 430.299 366.596 430.364 366.936 430.528C367.275 430.693 367.561 430.95 367.761 431.27C367.96 431.59 368.065 431.96 368.064 432.338C367.979 432.905 367.678 433.417 367.225 433.768C366.771 434.119 366.2 434.282 365.63 434.223V434.28ZM397.785 398.228H403.145C407.041 398.228 409.475 402.616 409.475 402.616C401.191 404.993 397.785 398.171 397.785 398.171V398.228ZM340.296 425.95H345.655C349.552 425.95 351.986 430.326 351.986 430.326C343.701 432.772 340.296 425.95 340.296 425.95ZM371.56 394.526L374.691 398.879C376.977 402.056 374.817 406.581 374.817 406.581C368.007 401.233 371.56 394.526 371.56 394.526ZM403.247 421.768L406.367 426.121C408.652 429.287 406.493 433.823 406.493 433.823C399.682 428.51 403.247 421.768 403.247 421.768ZM344.707 409.095L347.152 404.33C348.946 400.902 354.008 400.696 354.008 400.696C352.317 409.175 344.695 409.095 344.695 409.095H344.707Z" fill="white"/>
</svg>
